<?xml version="1.0" encoding="UTF-8"?>
<svg width="297mm" height="210mm" viewBox="0 0 297 210" version="1.1" xmlns="http://www.w3.org/2000/svg" xmlns:xlink="http://www.w3.org/1999/xlink">
 <g style="fill-opacity:1.0; stroke:black; stroke-width:0.1;" transform="translate(148,105)">
<path d="M -31.00 -4.00 h -2" fill="None" stroke="Black" stroke-width="0.1" />
<path d="M -31.00 -39.00 h -2" fill="None" stroke="Black" stroke-width="0.1" />
<path d="M 31.00 -4.00 h 2" fill="None" stroke="Black" stroke-width="0.1" />
<path d="M 31.00 -39.00 h 2" fill="None" stroke="Black" stroke-width="0.1" />
<path d="M -30.00 -3.00 v 2" fill="None" stroke="Black" stroke-width="0.1" />
<path d="M -30.00 -40.00 v -2" fill="None" stroke="Black" stroke-width="0.1" />
<path d="M 30.00 -3.00 v 2" fill="None" stroke="Black" stroke-width="0.1" />
<path d="M 30.00 -40.00 v -2" fill="None" stroke="Black" stroke-width="0.1" />
<path d="M -2 0 h 4" fill="None" stroke="Black" stroke-width="0.1" />
<path d="M 0 -2 v 4" fill="None" stroke="Black" stroke-width="0.1" />
<path d="M -2 10.00 h 4" fill="None" stroke="Black" stroke-width="0.1" />
<path d="M 0 8.00 v 4" fill="None" stroke="Black" stroke-width="0.1" />
<path d="M 10.00 0 A 10.00 10.00 0 0,0 -10.00,0" fill="None" stroke="Black" stroke-width="0.1" />
<circle cx="-15.50" cy="-7.00" r="0.75" fill="None" stroke="Black" stroke-width="0.1"/>
<circle cx="15.50" cy="-7.00" r="0.75" fill="None" stroke="Black" stroke-width="0.1"/>
<path d="M -21.92 -21.92 A 38.72 38.72 0 0,1 21.92,-21.92" fill="none" stroke="black" stroke-width="0.1" />
  <line x1="-21.92" y1="-21.92" x2="-22.63" y2="-22.63" stroke="black" width="0.10" />
  <line x1="-20.06" y1="-23.12" x2="-20.71" y2="-23.88" stroke="black" width="0.10" />
  <line x1="-18.30" y1="-24.12" x2="-18.90" y2="-24.92" stroke="black" width="0.10" />
  <line x1="-16.66" y1="-24.95" x2="-17.21" y2="-25.78" stroke="black" width="0.10" />
  <line x1="-15.12" y1="-25.65" x2="-15.62" y2="-26.51" stroke="black" width="0.10" />
  <line x1="-13.68" y1="-26.23" x2="-14.13" y2="-27.11" stroke="black" width="0.10" />
  <line x1="-12.33" y1="-26.71" x2="-12.73" y2="-27.61" stroke="black" width="0.10" />
  <line x1="-11.06" y1="-27.11" x2="-11.43" y2="-28.03" stroke="black" width="0.10" />
  <line x1="-9.88" y1="-27.44" x2="-10.20" y2="-28.37" stroke="black" width="0.10" />
  <line x1="-8.76" y1="-27.72" x2="-9.05" y2="-28.66" stroke="black" width="0.10" />
  <line x1="-7.72" y1="-27.95" x2="-7.97" y2="-28.90" stroke="black" width="0.10" />
  <line x1="-6.73" y1="-28.13" x2="-6.95" y2="-29.09" stroke="black" width="0.10" />
  <line x1="-5.80" y1="-28.28" x2="-6.00" y2="-29.25" stroke="black" width="0.10" />
  <line x1="-4.93" y1="-28.41" x2="-5.09" y2="-29.38" stroke="black" width="0.10" />
  <line x1="-4.10" y1="-28.50" x2="-4.24" y2="-29.48" stroke="black" width="0.10" />
  <line x1="-3.32" y1="-28.58" x2="-3.44" y2="-29.56" stroke="black" width="0.10" />
  <line x1="-2.59" y1="-28.64" x2="-2.67" y2="-29.62" stroke="black" width="0.10" />
  <line x1="-1.89" y1="-28.68" x2="-1.95" y2="-29.66" stroke="black" width="0.10" />
  <line x1="-1.23" y1="-28.70" x2="-1.27" y2="-29.69" stroke="black" width="0.10" />
  <line x1="-0.60" y1="-28.72" x2="-0.62" y2="-29.70" stroke="black" width="0.10" />
  <line x1="0.00" y1="-28.72" x2="0.00" y2="-29.71" stroke="black" width="0.10" />
  <line x1="4.65" y1="-28.44" x2="4.80" y2="-29.41" stroke="black" width="0.10" />
  <line x1="7.72" y1="-27.95" x2="7.97" y2="-28.90" stroke="black" width="0.10" />
  <line x1="9.88" y1="-27.44" x2="10.20" y2="-28.37" stroke="black" width="0.10" />
  <line x1="11.48" y1="-26.98" x2="11.85" y2="-27.89" stroke="black" width="0.10" />
  <line x1="12.71" y1="-26.58" x2="13.12" y2="-27.47" stroke="black" width="0.10" />
  <line x1="13.68" y1="-26.23" x2="14.13" y2="-27.11" stroke="black" width="0.10" />
  <line x1="14.47" y1="-25.92" x2="14.94" y2="-26.79" stroke="black" width="0.10" />
  <line x1="21.92" y1="-21.92" x2="22.63" y2="-22.63" stroke="black" width="0.10" />
  <line x1="-21.92" y1="-21.92" x2="-23.33" y2="-23.33" stroke="black" width="0.10" />
  <line x1="-13.68" y1="-26.23" x2="-14.58" y2="-27.99" stroke="black" width="0.10" />
  <line x1="-7.72" y1="-27.95" x2="-8.23" y2="-29.85" stroke="black" width="0.10" />
  <line x1="0.00" y1="-28.72" x2="0.00" y2="-30.69" stroke="black" width="0.10" />
  <line x1="7.72" y1="-27.95" x2="8.23" y2="-29.85" stroke="black" width="0.10" />
  <line x1="14.47" y1="-25.92" x2="15.42" y2="-27.66" stroke="black" width="0.10" />
  <line x1="21.92" y1="-21.92" x2="23.33" y2="-23.33" stroke="black" width="0.10" />
<text x="-24.75" y="-24.75" font-size="2" fill="black" stroke="black" font-family="IsonormD" style="text-anchor:middle;dominant-baseline:middle">
1
</text>
<text x="-15.48" y="-29.75" font-size="2" fill="black" stroke="black" font-family="IsonormD" style="text-anchor:middle;dominant-baseline:middle">
1.5
</text>
<text x="-8.74" y="-31.76" font-size="2" fill="black" stroke="black" font-family="IsonormD" style="text-anchor:middle;dominant-baseline:middle">
2
</text>
<text x="0.00" y="-32.66" font-size="2" fill="black" stroke="black" font-family="IsonormD" style="text-anchor:middle;dominant-baseline:middle">
3
</text>
<text x="8.74" y="-31.76" font-size="2" fill="black" stroke="black" font-family="IsonormD" style="text-anchor:middle;dominant-baseline:middle">
5
</text>
<text x="16.37" y="-29.40" font-size="2" fill="black" stroke="black" font-family="IsonormD" style="text-anchor:middle;dominant-baseline:middle">
10
</text>
<text x="24.75" y="-24.75" font-size="2" fill="black" stroke="black" font-family="IsonormD" style="text-anchor:middle;dominant-baseline:middle">
∞
</text>
<text x="0.00" y="-36.61" font-size="3" fill="black" stroke="black" font-family="IsonormD" style="text-anchor:middle;dominant-baseline:middle">
SWR
</text>
<path d="M -22.11 -21.19 A 38.23 38.23 0 0,1 22.11,-21.19" fill="none" stroke="red" stroke-width="0.1" />
  <line x1="-22.11" y1="-21.19" x2="-21.39" y2="-20.49" stroke="red" width="0.10" />
  <line x1="-18.49" y1="-23.46" x2="-17.87" y2="-22.68" stroke="red" width="0.10" />
  <line x1="-15.28" y1="-25.04" x2="-14.77" y2="-24.19" stroke="red" width="0.10" />
  <line x1="-12.47" y1="-26.14" x2="-12.05" y2="-25.25" stroke="red" width="0.10" />
  <line x1="-9.99" y1="-26.90" x2="-9.65" y2="-25.98" stroke="red" width="0.10" />
  <line x1="-7.81" y1="-27.43" x2="-7.54" y2="-26.48" stroke="red" width="0.10" />
  <line x1="-5.87" y1="-27.78" x2="-5.67" y2="-26.81" stroke="red" width="0.10" />
  <line x1="-4.15" y1="-28.00" x2="-4.01" y2="-27.03" stroke="red" width="0.10" />
  <line x1="-2.62" y1="-28.14" x2="-2.53" y2="-27.16" stroke="red" width="0.10" />
  <line x1="-1.24" y1="-28.21" x2="-1.20" y2="-27.23" stroke="red" width="0.10" />
  <line x1="0.00" y1="-28.23" x2="0.00" y2="-27.25" stroke="red" width="0.10" />
  <line x1="2.14" y1="-28.17" x2="2.07" y2="-27.19" stroke="red" width="0.10" />
  <line x1="3.92" y1="-28.03" x2="3.79" y2="-27.05" stroke="red" width="0.10" />
  <line x1="5.42" y1="-27.84" x2="5.24" y2="-26.88" stroke="red" width="0.10" />
  <line x1="6.70" y1="-27.64" x2="6.48" y2="-26.68" stroke="red" width="0.10" />
  <line x1="7.81" y1="-27.43" x2="7.54" y2="-26.48" stroke="red" width="0.10" />
  <line x1="9.61" y1="-27.00" x2="9.28" y2="-26.07" stroke="red" width="0.10" />
  <line x1="11.01" y1="-26.61" x2="10.64" y2="-25.70" stroke="red" width="0.10" />
  <line x1="12.14" y1="-26.25" x2="11.73" y2="-25.35" stroke="red" width="0.10" />
  <line x1="13.06" y1="-25.93" x2="12.62" y2="-25.04" stroke="red" width="0.10" />
  <line x1="13.83" y1="-25.64" x2="13.37" y2="-24.77" stroke="red" width="0.10" />
  <line x1="16.30" y1="-24.58" x2="15.76" y2="-23.75" stroke="red" width="0.10" />
  <line x1="17.65" y1="-23.91" x2="17.06" y2="-23.11" stroke="red" width="0.10" />
  <line x1="18.49" y1="-23.46" x2="17.87" y2="-22.68" stroke="red" width="0.10" />
  <line x1="22.11" y1="-21.19" x2="21.39" y2="-20.49" stroke="red" width="0.10" />
  <line x1="-22.11" y1="-21.19" x2="-20.67" y2="-19.80" stroke="red" width="0.10" />
  <line x1="-15.28" y1="-25.04" x2="-14.26" y2="-23.34" stroke="red" width="0.10" />
  <line x1="-9.99" y1="-26.90" x2="-9.32" y2="-25.05" stroke="red" width="0.10" />
  <line x1="-5.87" y1="-27.78" x2="-5.48" y2="-25.85" stroke="red" width="0.10" />
  <line x1="-2.62" y1="-28.14" x2="-2.44" y2="-26.18" stroke="red" width="0.10" />
  <line x1="0.00" y1="-28.23" x2="0.00" y2="-26.27" stroke="red" width="0.10" />
  <line x1="7.81" y1="-27.43" x2="7.28" y2="-25.53" stroke="red" width="0.10" />
  <line x1="13.83" y1="-25.64" x2="12.90" y2="-23.89" stroke="red" width="0.10" />
  <line x1="18.49" y1="-23.46" x2="17.26" y2="-21.90" stroke="red" width="0.10" />
  <line x1="22.11" y1="-21.19" x2="20.67" y2="-19.80" stroke="red" width="0.10" />
<text x="-19.58" y="-18.76" font-size="2" fill="red" stroke="red" font-family="IsonormD" style="text-anchor:middle;dominant-baseline:middle">
0
</text>
<text x="-13.50" y="-22.07" font-size="2" fill="red" stroke="red" font-family="IsonormD" style="text-anchor:middle;dominant-baseline:middle">
10
</text>
<text x="-8.82" y="-23.66" font-size="2" fill="red" stroke="red" font-family="IsonormD" style="text-anchor:middle;dominant-baseline:middle">
20
</text>
<text x="-5.18" y="-24.41" font-size="2" fill="red" stroke="red" font-family="IsonormD" style="text-anchor:middle;dominant-baseline:middle">
30
</text>
<text x="-2.31" y="-24.72" font-size="2" fill="red" stroke="red" font-family="IsonormD" style="text-anchor:middle;dominant-baseline:middle">
40
</text>
<text x="0.00" y="-24.80" font-size="2" fill="red" stroke="red" font-family="IsonormD" style="text-anchor:middle;dominant-baseline:middle">
50
</text>
<text x="6.89" y="-24.11" font-size="2" fill="red" stroke="red" font-family="IsonormD" style="text-anchor:middle;dominant-baseline:middle">
100
</text>
<text x="12.21" y="-22.58" font-size="2" fill="red" stroke="red" font-family="IsonormD" style="text-anchor:middle;dominant-baseline:middle">
200
</text>
<text x="16.35" y="-20.72" font-size="2" fill="red" stroke="red" font-family="IsonormD" style="text-anchor:middle;dominant-baseline:middle">
500
</text>
<text x="19.58" y="-18.77" font-size="2" fill="red" stroke="red" font-family="IsonormD" style="text-anchor:middle;dominant-baseline:middle">
∞
</text>
<text x="0.00" y="-21.87" font-size="3" fill="black" stroke="black" font-family="IsonormD" style="text-anchor:middle;dominant-baseline:middle">
R or Z (Ω)
</text>
<path d="M -1.59 -16.00 L -1.96 -19.85 A 29.92 29.92 0 0,1 15.56,-15.56 L 15.56 -15.56 L 12.73 -12.73 A 26.05 26.05 0 0,0 -1.59,-16.00 Z" fill="green" stroke="black" stroke-width="0.1" />
<defs>
   <path id="39.690.028.1728795049" d="M -1.80 -18.12 A 28.17 28.17 0 0,1 14.28,-14.28" />
  </defs>
<text font-size="3" fill="white" stroke="white" font-family="IsonormD" style="text-anchor:middle;dominant-baseline:middle">
<textPath xlink:href="#39.690.028.1728795049" startOffset="50%">
INPUT OK
</textPath>
</text>
 </g>
</svg>
